<svg width="50px" height="57px" viewBox="0 0 50 57" version="1.1" xmlns="http://www.w3.org/2000/svg" xmlns:xlink="http://www.w3.org/1999/xlink">
    <!-- Generator: Sketch 48.2 (47327) - http://www.bohemiancoding.com/sketch -->
    <desc>Created with Sketch.</desc>
    <defs></defs>
    <g id="Page-1" stroke="none" stroke-width="1" fill="none" fill-rule="evenodd" opacity="0.500679348">
        <g id="stopwatch" fill="#000000" fill-rule="nonzero">
            <path d="M28.12,19.5 L28.12,32 C28.12,33.73 26.73,35.12 25,35.12 C23.27,35.12 21.88,33.73 21.88,32 L21.88,19.5 L28.12,19.5 Z" id="Shape"></path>
            <path d="M49.8,28.88 C51.53,42.57 41.821,55.08 28.12,56.8 C14.43,58.53 1.92,48.821 0.2,35.12 C-1.53,21.43 8.18,8.92 21.88,7.2 L21.88,0.75 L28.12,0.75 L28.12,7.2 C31.849,7.46 37.51,9.8 40.33,12.25 L44.89,7.69 L49.31,12.11 L44.75,16.67 C47.2,19.49 49.54,25.15 49.8,28.88 Z M43.75,32 C43.75,21.64 35.36,13.25 25,13.25 C14.64,13.25 6.25,21.64 6.25,32 C6.25,42.36 14.64,50.75 25,50.75 C35.36,50.75 43.75,42.36 43.75,32 Z" id="Shape"></path>
        </g>
    </g>
</svg>
